<svg viewBox="0 0 48 28" fill="none" xmlns="http://www.w3.org/2000/svg">
<path d="M47.9601 5.75718C48.1496 6.26535 47.6222 6.3923 47.3502 5.97518C46.356 4.45237 43.7578 1.43977 40.723 1.43977H39.5027V25.4688C39.4956 25.7168 39.5569 25.9619 39.6799 26.1773C39.8029 26.3927 39.9828 26.5701 40.1998 26.69L41.2462 27.4316C41.6725 27.7335 41.5549 27.9981 41.0717 27.9981H32.0904C31.6071 27.9981 31.4895 27.7335 31.9158 27.4316L32.9627 26.69C33.1798 26.5701 33.3597 26.3927 33.4827 26.1773C33.6056 25.9619 33.6669 25.7168 33.6599 25.4688V1.43977H32.5263C29.4697 1.43977 26.9332 4.51307 25.8559 6.1059C25.6063 6.47452 25.089 6.29539 25.2892 5.75718L27.2509 0.48022C27.3741 0.148777 27.5724 0.000555125 27.8177 0.000555125H45.3443C45.4906 -0.00150724 45.6336 0.0442034 45.7517 0.13076C45.8697 0.217316 45.9563 0.34 45.9984 0.48022L47.9601 5.75718Z" fill="white"/>
<path d="M25.5515 27.4316L24.4178 26.6895C24.1792 26.5544 24.0001 26.3344 23.9161 26.0733C23.876 25.9036 23.8534 25.7303 23.8486 25.5561V2.00644L24.8511 0.698175C25.2258 0.209468 25.1502 0.000271569 24.895 0.000271569H20.7094C20.5631 -0.00368178 20.4189 0.0356029 20.2948 0.11321C20.1708 0.190816 20.0723 0.303298 20.0119 0.436578L13.0795 11.9062L6.97571 0.436578C6.77451 0.0585499 6.7101 0.000271569 6.40886 0.000271569H0.218068C-0.155804 0.000271569 0.00304952 0.302404 0.305104 0.785513L2.48508 4.27431C2.69994 4.61461 2.82034 5.00599 2.83391 5.40825V25.4688C2.85765 25.7092 2.81292 25.9513 2.7049 26.1673C2.59688 26.3833 2.42997 26.5643 2.22346 26.6895L1.17715 27.4316C0.860514 27.6552 0.868454 27.998 1.35144 27.998H6.23458C6.67819 27.998 6.70745 27.668 6.40886 27.4316L5.36253 26.6028C5.15968 26.4958 4.99328 26.3308 4.88456 26.1288C4.77583 25.9269 4.72971 25.6971 4.75208 25.4688V8.28645L10.6816 19.4069L18.0935 7.15279V25.4688C18.1297 25.7055 18.0952 25.9476 17.9944 26.1648C17.8935 26.3819 17.7308 26.5644 17.5267 26.6895L16.393 27.4316C16.3307 27.4643 16.2817 27.5177 16.2547 27.5827C16.2276 27.6476 16.2241 27.72 16.2448 27.7873C16.2655 27.8546 16.3091 27.9125 16.368 27.951C16.4269 27.9894 16.4975 28.0061 16.5674 27.998H25.3771C25.447 28.0061 25.5176 27.9894 25.5765 27.9509C25.6354 27.9125 25.679 27.8546 25.6997 27.7873C25.7204 27.72 25.7169 27.6476 25.6898 27.5827C25.6627 27.5177 25.6138 27.4643 25.5515 27.4316Z" fill="white"/>
</svg>
