<svg viewBox="0 0 218 30" fill="none" xmlns="http://www.w3.org/2000/svg">
<g clip-path="url(#clip0_3466_4460)">
<path d="M41.6565 29.7808H33.106C33.106 29.8538 32.9963 29.1961 32.7771 28.7211L24.19 10.4141C23.4227 8.80633 23.0572 7.5274 23.0572 6.10231C23.0572 3.47138 24.4823 0 28.7211 0C32.4848 0 34.3484 3.06943 34.3484 5.51766C34.3484 7.08892 33.7272 8.62363 33.1425 9.86602L32.5579 10.9257L41.6565 29.7808ZM3.87332 4.34835H12.6431C12.6431 4.34835 12.7162 4.96955 12.8624 5.33496L20.9013 23.6054L24.0438 17.2107L25.3228 20.0974C26.1632 21.961 26.7844 22.9476 25.8709 24.7381L23.3496 29.8173H15.5298L3.87332 4.34835ZM0 29.7808L6.43118 17.1742L7.78319 20.0609C8.80633 22.2168 9.02558 23.1669 8.3313 24.7016L6.43118 28.8672C6.24848 29.1961 6.21194 29.7808 6.21194 29.7808H0ZM178.831 16.8819H180C184.275 16.8819 185.956 18.2339 185.956 21.3764C185.956 24.5189 184.275 26.0901 180.219 26.0901H178.831V16.8819ZM205.834 23.7515L208.027 18.4896H208.136L210.402 23.7515H205.834ZM192.935 29.7808H197.247V13.2643H192.935V29.7808ZM77.2838 13.2643H73.0085V29.8173H77.3203V13.2643H77.2838ZM130.414 13.2643H126.102V29.8173H130.414V13.2643ZM123.508 13.2643H109.476V16.8819H114.336V29.8173H118.648V16.8819H123.508V13.2643ZM56.9671 13.2643H51.9976L59.9269 29.8173H63.1791L71.2911 13.2643H66.7235L61.8636 23.2765H61.7905L56.9671 13.2643ZM92.8502 13.2643H81.3764V29.8173H92.8502V26.0901H85.6882V23.0207H91.0597V19.6955H85.6882V16.8819H92.8502V13.2643ZM159.683 29.7808H171.157V26.0536H163.995V22.9842H169.367V19.659H163.995V16.8453H171.157V13.2278H159.683V29.7808ZM206.127 13.2643L198.928 29.8173H203.276L204.446 27.0767H211.79L212.96 29.8173H217.527L210.329 13.2643H206.127ZM134.47 13.2643V29.8173H138.782V19.2935L143.788 26.2728H146.419L151.315 19.1474V29.8173H155.591V13.2643H150.877L145.469 21.0475H145.286L139.403 13.2643H134.47ZM180.329 13.2643H174.519V29.8173H180.621C186.76 29.8173 190.195 26.6382 190.195 21.3398C190.231 15.8222 186.285 13.2643 180.329 13.2643ZM95.6638 24.4823V28.9403C96.8697 29.4884 98.4409 30 101.62 30C105.822 30 108.051 27.6979 108.051 24.7381C108.051 21.9245 106.516 20.3898 103.52 19.6955L102.278 19.4032C100.341 18.9281 99.866 18.5627 99.866 17.8319C99.866 17.0646 100.67 16.553 102.278 16.553C104.982 16.553 106.224 17.43 106.845 17.6857V13.6663C105.968 13.447 104.434 13.0816 101.949 13.0816C98.1851 13.0816 95.6638 14.9817 95.6638 18.1242C95.6638 20.9379 97.5639 22.3995 99.9756 22.9476L101.62 23.3496C103.264 23.7515 103.885 24.1535 103.885 24.8477C103.885 25.7613 102.862 26.419 101.291 26.419C98.7698 26.3825 96.76 25.4324 95.6638 24.4823Z" fill="white"/>
</g>
<defs>
<clipPath id="clip0_3466_4460">
<rect width="217.527" height="30" fill="white"/>
</clipPath>
</defs>
</svg>
