<?xml version="1.0" encoding="utf-8"?>
<!-- Generator: Adobe Illustrator 26.0.3, SVG Export Plug-In . SVG Version: 6.00 Build 0)  -->
<svg version="1.1" id="Layer_1" xmlns="http://www.w3.org/2000/svg" xmlns:xlink="http://www.w3.org/1999/xlink" x="0px" y="0px"
	 width="685.8px" height="160.2px" viewBox="0 0 685.8 160.2" style="enable-background:new 0 0 685.8 160.2;" xml:space="preserve"
	>
<style type="text/css">
	.st0{fill:#191814;}
</style>
<path class="st0" d="M159.2,114.9h-23.4c0,0.2-0.3-1.6-0.9-2.9l-23.5-50.1c-2.1-4.4-3.1-7.9-3.1-11.8c0-7.2,3.9-16.7,15.5-16.7
	c10.3,0,15.4,8.4,15.4,15.1c0,4.3-1.7,8.5-3.3,11.9l-1.6,2.9L159.2,114.9z M55.8,45.3h24c0,0,0.2,1.7,0.6,2.7l22,50l8.6-17.5
	l3.5,7.9c2.3,5.1,4,7.8,1.5,12.7l-6.9,13.9H87.7L55.8,45.3z M45.2,114.9l17.6-34.5l3.7,7.9c2.8,5.9,3.4,8.5,1.5,12.7l-5.2,11.4
	c-0.5,0.9-0.6,2.5-0.6,2.5H45.2z M534.6,79.6h3.2c11.7,0,16.3,3.7,16.3,12.3s-4.6,12.9-15.7,12.9h-3.8V79.6z M608.5,98.4l6-14.4h0.3
	l6.2,14.4H608.5z M573.2,114.9H585V69.7h-11.8V114.9z M256.7,69.7H245v45.3h11.8V69.7z M402.1,69.7h-11.8v45.3h11.8V69.7z
	 M383.2,69.7h-38.4v9.9h13.3v35.4h11.8V79.6h13.3V69.7z M201.1,69.7h-13.6l21.7,45.3h8.9l22.2-45.3h-12.5l-13.3,27.4h-0.2
	L201.1,69.7z M299.3,69.7h-31.4v45.3h31.4v-10.2h-19.6v-8.4h14.7v-9.1h-14.7v-7.7h19.6V69.7z M482.2,114.9h31.4v-10.2h-19.6v-8.4
	h14.7v-9.1h-14.7v-7.7h19.6v-9.9h-31.4V114.9z M609.3,69.7l-19.7,45.3h11.9l3.2-7.5h20.1l3.2,7.5h12.5l-19.7-45.3H609.3z
	 M413.2,69.7v45.3H425V86.2l13.7,19.1h7.2l13.4-19.5v29.2H471V69.7h-12.9L443.3,91h-0.5l-16.1-21.3H413.2z M538.7,69.7h-15.9v45.3
	h16.7c16.8,0,26.2-8.7,26.2-23.2C565.8,76.7,555,69.7,538.7,69.7z M307,100.4v12.2c3.3,1.5,7.6,2.9,16.3,2.9
	c11.5,0,17.6-6.3,17.6-14.4c0-7.7-4.2-11.9-12.4-13.8l-3.4-0.8c-5.3-1.3-6.6-2.3-6.6-4.3c0-2.1,2.2-3.5,6.6-3.5
	c7.4,0,10.8,2.4,12.5,3.1v-11c-2.4-0.6-6.6-1.6-13.4-1.6c-10.3,0-17.2,5.2-17.2,13.8c0,7.7,5.2,11.7,11.8,13.2l4.5,1.1
	c4.5,1.1,6.2,2.2,6.2,4.1c0,2.5-2.8,4.3-7.1,4.3C315.5,105.6,310,103,307,100.4z"/>
</svg>
